# xmcd
#
# Track frame offsets: 
#        150
#        16260
#        34532
#        48797
#        71322
#        82938
#        102288
#        120952
#        123629
#        140304
#        154168
#        158580
#
# Disc length: 2354 seconds
#
# Revision: 0
# Processed by: cddbd v1.5.2PL0 Copyright (c) Steve Scherf et al.
# Submitted via: ExactAudioCopyFreeDBPlugin 1.0
#
DISCID=8309300c
DTITLE=Krayzie Bone - Thug Brothers 2
DYEAR=2017
DGENRE=Hip-Hop
TTITLE0=Apparently
TTITLE1=Nothing Matters
TTITLE2=Right or Wrong
TTITLE3=Rolling Stone
TTITLE4=Both Worlds
TTITLE5=Heavenly Father
TTITLE6=Not The 1
TTITLE7=Criminal Tactics
TTITLE8=Follow Me
TTITLE9=Angles
TTITLE10=It's Hard To Let Go
TTITLE11=What I'm Going Through
EXTD=
EXTT0=
EXTT1=
EXTT2=
EXTT3=
EXTT4=
EXTT5=
EXTT6=
EXTT7=
EXTT8=
EXTT9=
EXTT10=
EXTT11=
PLAYORDER=
